<svg xmlns="http://www.w3.org/2000/svg" width="410" height="74.6" viewBox="45 5.8 410 74.6">
  <style>
    .st0{fill:#FDE74C;}
  </style>
  <path class="st0" d="M78.38 55.33H57.715v20.02H78.38V55.33zm14.572-44.563H57.714v19.698h35.238c.646 0 1.21 1.13 1.21 1.776 0 .69-.523 1.78-1.21 1.78H49.964V52.1h42.988c11.746 0 21.353-8.92 21.353-20.666s-9.566-20.667-21.353-20.667M194.63 55.33h-20.666v20.02h20.666V55.33z"/>
  <path class="st0" d="M210.01 75.35h20.14l-11.42-25.43c6.902-3.35 11.665-10.21 11.665-18.486 0-11.786-9.566-20.667-21.352-20.667h-35.076v19.698h35.077c.687 0 1.21 1.09 1.21 1.776 0 .65-.523 1.78-1.21 1.78h-37.66V10.77h-19.697v23.25H137.8V10.77h-20.67v23.25h-2.583V52.1h2.584v23.25h20.67V52.1h13.887v23.25h19.698V52.1h28.175l10.453 23.25zm23.37 0h48.438V55.33H233.38v20.02zm0-23.25h48.438V34.018H233.38V52.1zm0-21.635h48.438V10.767H233.38v19.698zm100.67 24.22c0-11.747-9.527-20.627-21.232-20.668h-6.176c-.646 0-1.21-1.09-1.21-1.776s.564-1.772 1.21-1.772h27.61l-.04-19.698h-27.57c-11.746 0-21.353 8.88-21.353 20.666s9.562 20.667 21.35 20.667h6.053c.687 0 1.21.93 1.21 1.615 0 .686-.523 1.615-1.21 1.615H284.4v20.02h28.296c11.787 0 21.353-8.88 21.353-20.666"/>
  <path class="st0" d="M371.265 52.1v23.25h19.698V52.1h27.408l10.458 23.25h20.91L438.31 49.92c6.903-3.35 11.666-10.21 11.666-18.486 0-11.786-9.566-20.667-21.353-20.667h-35.077v19.698h34.31c.686 0 1.21 1.09 1.21 1.776 0 .65-.524 1.78-1.21 1.78h-36.893V10.77h-19.7v23.25H357.38V10.77h-20.668v23.25h-2.582V52.1h2.583v23.25h20.667V52.1h13.885z"/>
  <path class="st0" d="M414.213 55.33h-20.667v20.02h20.667V55.33z"/>
</svg>
